<?xml version="1.0" encoding="utf-8"?>
<!-- Generator: Adobe Illustrator 21.1.0, SVG Export Plug-In . SVG Version: 6.00 Build 0)  -->
<svg version="1.1" id="Capa_1" xmlns="http://www.w3.org/2000/svg" xmlns:xlink="http://www.w3.org/1999/xlink" x="0px" y="0px"
	 viewBox="0 0 24 24" style="enable-background:new 0 0 24 24;" xml:space="preserve">
<style type="text/css">
	.st0{fill:none;}
</style>
<path class="st0" d="M0,0h24v24H0V0z"/>
<path d="M4.9,19.6c-2.1-2.1-2.1-5.6,0-7.8l7.4-7.4c1.6-1.6,4.1-1.6,5.7,0s1.6,4.1,0,5.7l-6,6c-1,1-2.6,1-3.5,0s-1-2.6,0-3.5l5.3-5.3
	l1.4,1.4L9.8,14c-0.4,0.4,0.3,1.1,0.7,0.7l6.1-6.1c0.8-0.8,0.8-2.1,0-2.8c-0.8-0.8-2.1-0.8-2.8,0l-7.4,7.4c-1.4,1.4-1.4,3.6,0,4.9
	c1.4,1.4,3.6,1.4,4.9,0l6.7-6.7l1.4,1.4l-6.7,6.7C10.6,21.7,7.1,21.7,4.9,19.6z"/>
</svg>
